<?xml version="1.0" encoding="UTF-8" standalone="no"?>
<svg
   xmlns:dc="http://purl.org/dc/elements/1.1/"
   xmlns:cc="http://creativecommons.org/ns#"
   xmlns:rdf="http://www.w3.org/1999/02/22-rdf-syntax-ns#"
   xmlns:svg="http://www.w3.org/2000/svg"
   xmlns="http://www.w3.org/2000/svg"
   xmlns:sodipodi="http://sodipodi.sourceforge.net/DTD/sodipodi-0.dtd"
   xmlns:inkscape="http://www.inkscape.org/namespaces/inkscape"
   version="1.1"
   x="0px"
   y="0px"
   viewBox="0 0 500 500"
   xml:space="preserve"
   id="svg8"
   sodipodi:docname="home.svg"
   width="500"
   height="500"
   inkscape:version="0.92.4 (f8dce91, 2019-08-02)"><metadata
     id="metadata14"><rdf:RDF><cc:Work
         rdf:about=""><dc:format>image/svg+xml</dc:format><dc:type
           rdf:resource="http://purl.org/dc/dcmitype/StillImage" /><dc:title></dc:title></cc:Work></rdf:RDF></metadata><defs
     id="defs12" /><sodipodi:namedview
     pagecolor="#ffffff"
     bordercolor="#666666"
     borderopacity="1"
     objecttolerance="10"
     gridtolerance="10"
     guidetolerance="10"
     inkscape:pageopacity="0"
     inkscape:pageshadow="2"
     inkscape:window-width="1366"
     inkscape:window-height="720"
     id="namedview10"
     showgrid="false"
     fit-margin-top="0"
     fit-margin-left="0"
     fit-margin-right="0"
     fit-margin-bottom="0"
     inkscape:zoom="0.76508705"
     inkscape:cx="255.73289"
     inkscape:cy="207.67796"
     inkscape:window-x="0"
     inkscape:window-y="24"
     inkscape:window-maximized="1"
     inkscape:current-layer="svg8" /><path
     d="m 480.86442,234.70522 c -3.84774,0 -7.69548,-1.53909 -11.54322,-3.84774 L 250,66.174105 30.678804,230.85748 c -8.465029,6.15639 -20.7777979,4.61729 -26.9341827,-3.84774 -6.1563845,-8.46504 -4.61728834,-20.77782 3.8477403,-26.9342 L 238.45678,26.927132 c 6.92593,-5.386843 16.16051,-5.386843 23.08644,0 L 492.40764,200.07554 c 8.46503,6.15638 10.00412,18.46916 3.84774,26.9342 -3.84774,4.61729 -10.00413,7.69548 -15.39096,7.69548 z m -43.86424,183.9221 V 265.48716 c 0,-10.77368 -8.46503,-19.23871 -19.2387,-19.23871 -10.77368,0 -19.2387,8.46503 -19.2387,19.23871 v 153.14016 c 0,10.77367 -9.23458,20.00826 -20.00825,20.00826 H 121.48547 c -10.77367,0 -20.00825,-9.23459 -20.00825,-20.00826 V 265.48716 c 0,-10.77368 -8.465024,-19.23871 -19.238697,-19.23871 -10.773672,0 -19.238701,8.46503 -19.238701,19.23871 v 153.14016 c 0,32.32103 26.164633,58.48568 58.485648,58.48568 h 256.25951 c 33.09056,0 59.2552,-26.16465 59.2552,-58.48568 z"
     id="path2"
     inkscape:connector-curvature="0"
     style="stroke-width:7.69548082" /></svg>