<?xml version="1.0" encoding="UTF-8" standalone="no"?>
<svg
   xmlns:dc="http://purl.org/dc/elements/1.1/"
   xmlns:cc="http://creativecommons.org/ns#"
   xmlns:rdf="http://www.w3.org/1999/02/22-rdf-syntax-ns#"
   xmlns:svg="http://www.w3.org/2000/svg"
   xmlns="http://www.w3.org/2000/svg"
   xmlns:sodipodi="http://sodipodi.sourceforge.net/DTD/sodipodi-0.dtd"
   xmlns:inkscape="http://www.inkscape.org/namespaces/inkscape"
   viewBox="0 0 500 500"
   x="0px"
   y="0px"
   version="1.1"
   id="svg12"
   sodipodi:docname="listen.svg"
   width="500"
   height="500"
   inkscape:version="0.92.4 (5da689c313, 2019-01-14)">
  <metadata
     id="metadata18">
    <rdf:RDF>
      <cc:Work
         rdf:about="">
        <dc:format>image/svg+xml</dc:format>
        <dc:type
           rdf:resource="http://purl.org/dc/dcmitype/StillImage" />
        <dc:title>Noun_part2</dc:title>
      </cc:Work>
    </rdf:RDF>
  </metadata>
  <defs
     id="defs16" />
  <sodipodi:namedview
     pagecolor="#ffffff"
     bordercolor="#666666"
     borderopacity="1"
     objecttolerance="10"
     gridtolerance="10"
     guidetolerance="10"
     inkscape:pageopacity="0"
     inkscape:pageshadow="2"
     inkscape:window-width="2560"
     inkscape:window-height="1017"
     id="namedview14"
     showgrid="false"
     fit-margin-top="0"
     fit-margin-left="0"
     fit-margin-right="0"
     fit-margin-bottom="0"
     inkscape:zoom="0.472"
     inkscape:cx="15.645484"
     inkscape:cy="-164.20554"
     inkscape:window-x="-8"
     inkscape:window-y="-8"
     inkscape:window-maximized="1"
     inkscape:current-layer="svg12" />
  <title
     id="title2">Noun_part2</title>
  <g
     id="g6"
     transform="matrix(12.5,0,0,12.5,-62.5,-62.5)">
    <path
       d="M 43,26.4 V 25 A 18,18 0 1 0 7,25 v 1.38 a 4.09,4.09 0 0 0 -2,3.4 v 8.42 a 4.15,4.15 0 0 0 3.47,3.95 l 5.38,0.83 H 14 A 1,1 0 0 0 14.65,42.74 1,1 0 0 0 15,42 V 26 A 1,1 0 0 0 13.85,25 L 9,25.75 V 25 a 16,16 0 0 1 32,0 v 0.76 L 36.15,25 A 1,1 0 0 0 35,26 V 42 A 1,1 0 0 0 35.35,42.76 1,1 0 0 0 36,43 h 0.15 l 5.39,-0.83 A 4.15,4.15 0 0 0 45,38.21 V 29.79 A 4.06,4.06 0 0 0 43,26.4 Z M 13,40.84 8.79,40.19 A 2.2,2.2 0 0 1 7,38.19 v -8.4 a 2.2,2.2 0 0 1 1.78,-2 L 13,27.17 Z m 30,-2.63 a 2.2,2.2 0 0 1 -1.78,2 L 37,40.84 V 27.17 l 4.21,0.64 a 2.2,2.2 0 0 1 1.79,2 z"
       id="path4"
       inkscape:connector-curvature="0" />
  </g>
</svg>
