<?xml version="1.0" encoding="UTF-8" standalone="no"?>
<svg
   xmlns:dc="http://purl.org/dc/elements/1.1/"
   xmlns:cc="http://creativecommons.org/ns#"
   xmlns:rdf="http://www.w3.org/1999/02/22-rdf-syntax-ns#"
   xmlns:svg="http://www.w3.org/2000/svg"
   xmlns="http://www.w3.org/2000/svg"
   xmlns:sodipodi="http://sodipodi.sourceforge.net/DTD/sodipodi-0.dtd"
   xmlns:inkscape="http://www.inkscape.org/namespaces/inkscape"
   viewBox="0 0 500 500"
   x="0px"
   y="0px"
   version="1.1"
   id="svg12"
   sodipodi:docname="list.svg"
   width="500"
   height="500"
   inkscape:version="0.92.4 (f8dce91, 2019-08-02)">
  <metadata
     id="metadata18">
    <rdf:RDF>
      <cc:Work
         rdf:about="">
        <dc:format>image/svg+xml</dc:format>
        <dc:type
           rdf:resource="http://purl.org/dc/dcmitype/StillImage" />
        <dc:title>Text, editor, UI, design, Bullet List</dc:title>
      </cc:Work>
    </rdf:RDF>
  </metadata>
  <defs
     id="defs16" />
  <sodipodi:namedview
     pagecolor="#ffffff"
     bordercolor="#666666"
     borderopacity="1"
     objecttolerance="10"
     gridtolerance="10"
     guidetolerance="10"
     inkscape:pageopacity="0"
     inkscape:pageshadow="2"
     inkscape:window-width="1366"
     inkscape:window-height="720"
     id="namedview14"
     showgrid="false"
     fit-margin-top="0"
     fit-margin-left="0"
     fit-margin-right="0"
     fit-margin-bottom="0"
     inkscape:zoom="0.29004633"
     inkscape:cx="293.4285"
     inkscape:cy="265.18166"
     inkscape:window-x="0"
     inkscape:window-y="24"
     inkscape:window-maximized="1"
     inkscape:current-layer="svg12" />
  <title
     id="title2">Text, editor, UI, design, Bullet List</title>
  <g
     data-name="Layer 39"
     id="g6"
     transform="matrix(17.7494,0,0,17.7494,-32.481402,-33.9904)">
    <path
       d="M 4,16 A 1,1 0 0 1 3,17 H 2.83 a 1,1 0 1 1 0,-2 H 3 a 1,1 0 0 1 1,1 z M 8.43,8 H 29 A 1,1 0 0 0 29,6 H 8.43 a 1,1 0 0 0 0,2 z M 3,24 H 2.83 a 1,1 0 1 0 0,2 H 3 A 1,1 0 0 0 3,24 Z M 29,15 H 8.43 a 1,1 0 0 0 0,2 H 29 a 1,1 0 0 0 0,-2 z m 0,9 H 8.43 a 1,1 0 0 0 0,2 H 29 a 1,1 0 0 0 0,-2 z M 3,6 H 2.83 a 1,1 0 0 0 0,2 H 3 A 1,1 0 1 0 3,6 Z"
       id="path4"
       inkscape:connector-curvature="0" />
  </g>
</svg>
