<?xml version="1.0" encoding="UTF-8" standalone="no"?>
<svg
   xmlns:dc="http://purl.org/dc/elements/1.1/"
   xmlns:cc="http://creativecommons.org/ns#"
   xmlns:rdf="http://www.w3.org/1999/02/22-rdf-syntax-ns#"
   xmlns:svg="http://www.w3.org/2000/svg"
   xmlns="http://www.w3.org/2000/svg"
   xmlns:sodipodi="http://sodipodi.sourceforge.net/DTD/sodipodi-0.dtd"
   xmlns:inkscape="http://www.inkscape.org/namespaces/inkscape"
   version="1.1"
   x="0px"
   y="0px"
   viewBox="0 0 500 500"
   enable-background="new 0 0 500 500"
   xml:space="preserve"
   id="svg20"
   sodipodi:docname="user.svg"
   width="500"
   height="500"
   inkscape:version="0.92.4 (f8dce91, 2019-08-02)"><metadata
     id="metadata26"><rdf:RDF><cc:Work
         rdf:about=""><dc:format>image/svg+xml</dc:format><dc:type
           rdf:resource="http://purl.org/dc/dcmitype/StillImage" /><dc:title></dc:title></cc:Work></rdf:RDF></metadata><defs
     id="defs24" /><sodipodi:namedview
     pagecolor="#ffffff"
     bordercolor="#666666"
     borderopacity="1"
     objecttolerance="10"
     gridtolerance="10"
     guidetolerance="10"
     inkscape:pageopacity="0"
     inkscape:pageshadow="2"
     inkscape:window-width="909"
     inkscape:window-height="480"
     id="namedview22"
     showgrid="false"
     inkscape:zoom="0.3776"
     inkscape:cx="250"
     inkscape:cy="312.5"
     inkscape:window-x="0"
     inkscape:window-y="24"
     inkscape:window-maximized="0"
     inkscape:current-layer="svg20" /><g
     id="g14"
     transform="matrix(1.4183362,0,0,1.4183352,-104.57215,-104.49499)"><g
       id="g6"><g
         id="g4"><path
           d="m 378.8,406.3 c -29,0 -58,0 -87,0 -46.2,0 -92.4,0 -138.6,0 -10.6,0 -21.2,0 -31.8,0 3.3,3.3 6.7,6.7 10,10 0,-19.1 0,-38.1 0,-57.2 0,-9.9 0.1,-19.6 2.7,-29.3 4.2,-15.4 13,-29 25,-39.4 14,-12.1 32.2,-18.4 50.6,-18.5 -1.7,-0.5 -3.4,-0.9 -5,-1.4 27.9,16.1 62.9,16.1 90.8,0 -1.7,0.5 -3.4,0.9 -5,1.4 1.5,0 3,0 4.5,0.1 1.1,0.1 2.1,0.1 3.2,0.2 0.7,0.1 1.4,0.1 2,0.2 0.7,0.1 0.6,0.1 -0.4,-0.1 0.6,0.1 1.3,0.2 1.9,0.3 7,1.2 14,3 20.5,5.9 18,8 32.7,22.7 40.4,40.8 9.1,21.4 6.2,47 6.2,69.7 0,9 0,18.1 0,27.1 0,12.9 20,12.9 20,0 0,-21.9 0.1,-43.7 0,-65.6 -0.2,-47.9 -35.3,-89.9 -82.8,-97.4 -6.1,-1 -14.7,-2.9 -20.6,0 -8.6,4.2 -16.4,7.8 -26.2,9.1 -11.7,1.6 -23.6,-0.2 -34.7,-4.3 -2.8,-1 -5.8,-2.7 -9.1,-4.4 -5.4,-2.8 -12.2,-1.6 -18.1,-0.8 -45.7,5.9 -81.3,43.4 -85.5,89.1 -1.2,12.7 -0.4,25.7 -0.4,38.4 0,12 0,24 0,36 0,5.4 4.6,10 10,10 29,0 58,0 87,0 46.2,0 92.4,0 138.6,0 10.6,0 21.2,0 31.8,0 12.9,0.1 12.9,-19.9 0,-19.9 z"
           id="path2"
           inkscape:connector-curvature="0" /></g></g><g
       id="g12"><g
         id="g10"><path
           d="m 315.2,158.9 c -0.2,26.8 -17,52.1 -42.6,61.2 -26.2,9.3 -55.3,1.5 -73.1,-19.9 -17.4,-20.8 -19.3,-51.4 -5.6,-74.6 13.8,-23.2 41.8,-36.2 68.4,-30.8 30.6,6.2 52.7,32.9 52.9,64.1 0.1,12.9 20.1,12.9 20,0 -0.3,-35.8 -22.6,-67.5 -56,-80.1 -33,-12.4 -72.4,-1.7 -94.7,25.6 -22.6,27.8 -26.3,67.5 -7.6,98.4 18.6,30.8 54.9,46.3 90,39.5 39.5,-7.6 67.9,-43.8 68.2,-83.5 0.3,-12.8 -19.7,-12.8 -19.9,0.1 z"
           id="path8"
           inkscape:connector-curvature="0" /></g></g></g></svg>