<?xml version="1.0" encoding="UTF-8" standalone="no"?>
<svg
   xmlns:dc="http://purl.org/dc/elements/1.1/"
   xmlns:cc="http://creativecommons.org/ns#"
   xmlns:rdf="http://www.w3.org/1999/02/22-rdf-syntax-ns#"
   xmlns:svg="http://www.w3.org/2000/svg"
   xmlns="http://www.w3.org/2000/svg"
   xmlns:sodipodi="http://sodipodi.sourceforge.net/DTD/sodipodi-0.dtd"
   xmlns:inkscape="http://www.inkscape.org/namespaces/inkscape"
   viewBox="0 0 500 500"
   version="1.1"
   x="0px"
   y="0px"
   id="svg14"
   sodipodi:docname="right.svg"
   width="500"
   height="500"
   inkscape:version="0.92.4 (f8dce91, 2019-08-02)">
  <metadata
     id="metadata20">
    <rdf:RDF>
      <cc:Work
         rdf:about="">
        <dc:format>image/svg+xml</dc:format>
        <dc:type
           rdf:resource="http://purl.org/dc/dcmitype/StillImage" />
        <dc:title>1_right arrow</dc:title>
      </cc:Work>
    </rdf:RDF>
  </metadata>
  <defs
     id="defs18" />
  <sodipodi:namedview
     pagecolor="#ffffff"
     bordercolor="#666666"
     borderopacity="1"
     objecttolerance="10"
     gridtolerance="10"
     guidetolerance="10"
     inkscape:pageopacity="0"
     inkscape:pageshadow="2"
     inkscape:window-width="1366"
     inkscape:window-height="720"
     id="namedview16"
     showgrid="false"
     fit-margin-top="0"
     fit-margin-left="0"
     fit-margin-right="0"
     fit-margin-bottom="0"
     inkscape:zoom="3.4962963"
     inkscape:cx="26.815385"
     inkscape:cy="20.065383"
     inkscape:window-x="0"
     inkscape:window-y="24"
     inkscape:window-maximized="1"
     inkscape:current-layer="svg14" />
  <title
     id="title2">1_right arrow</title>
  <desc
     id="desc4">Created with Sketch.</desc>
  <g
     id="g8"
     transform="matrix(9.3230063,0,0,9.3230063,-1.7211704,-1.7211704)"
     style="fill:none;fill-rule:evenodd;stroke:none;stroke-width:1">
    <path
       d="M 27,53.815385 C 12.230769,53.815385 0.18461539,41.769231 0.18461539,27 0.18461539,12.230769 12.230769,0.18461539 27,0.18461539 41.769231,0.18461539 53.815385,12.184615 53.815385,27 53.815385,41.815385 41.769231,53.815385 27,53.815385 Z M 27,3.9692308 C 14.307692,3.9692308 3.9692308,14.307692 3.9692308,27 3.9692308,39.692308 14.307692,50.030769 27,50.030769 39.692308,50.030769 50.030769,39.692308 50.030769,27 50.030769,14.307692 39.692308,3.9692308 27,3.9692308 Z M 20.815385,40.384615 c -0.738462,-0.738461 -0.738462,-1.938461 0,-2.676923 L 31.661538,26.861539 20.815385,16.015385 c -0.738462,-0.738462 -0.738462,-1.938462 0,-2.676924 0.738461,-0.738461 1.938461,-0.738461 2.676923,0 l 12.184615,12.184616 c 0.369231,0.369231 0.553846,0.830769 0.553846,1.338462 0,0.507692 -0.184615,0.96923 -0.553846,1.338461 L 23.492308,40.384615 c -0.369231,0.369231 -0.876923,0.553847 -1.338462,0.553847 -0.507692,0 -0.969231,-0.184616 -1.338461,-0.553847 z"
       id="path6"
       inkscape:connector-curvature="0"
       style="fill:#000000;fill-rule:nonzero" />
  </g>
</svg>
